<?xml version="1.0" standalone="no"?><!DOCTYPE svg PUBLIC "-//W3C//DTD SVG 1.1//EN" "http://www.w3.org/Graphics/SVG/1.1/DTD/svg11.dtd"><svg t="1772604410248" class="icon" viewBox="0 0 1024 1024" version="1.1" xmlns="http://www.w3.org/2000/svg" p-id="1682" xmlns:xlink="http://www.w3.org/1999/xlink" width="200" height="200"><path d="M562.432 195.401143L433.115429 324.754286a200.301714 200.301714 0 0 0-48.493715 78.189714 200.118857 200.118857 0 0 0-78.189714 48.493714L177.115429 580.754286a201.142857 201.142857 0 0 0 284.452571 284.452571l129.316571-129.316571a200.301714 200.301714 0 0 0 48.493715-78.226286 199.862857 199.862857 0 0 0 78.189714-48.457143l129.316571-129.316571a201.142857 201.142857 0 0 0-284.452571-284.452572z m-187.026286 293.229714l0.438857 3.986286a200.265143 200.265143 0 0 0 57.270858 116.553143 200.301714 200.301714 0 0 0 120.539428 57.746285 131.437714 131.437714 0 0 1-14.482286 17.225143l-129.316571 129.316572a128 128 0 1 1-181.028571-181.028572l129.316571-129.316571c5.412571-5.412571 11.190857-10.24 17.261714-14.482286z m163.766857 14.482286a127.634286 127.634286 0 0 1 37.485715 91.794286 127.561143 127.561143 0 0 1-91.794286-37.449143 127.634286 127.634286 0 0 1-37.522286-91.794286 127.378286 127.378286 0 0 1 91.794286 37.449143z m256-256a128 128 0 0 1 0 181.028571l-129.316571 129.316572c-5.412571 5.412571-11.190857 10.24-17.225143 14.445714a200.265143 200.265143 0 0 0-57.782857-120.502857 200.301714 200.301714 0 0 0-120.502857-57.746286c4.278857-6.034286 9.069714-11.812571 14.482286-17.225143l129.316571-129.316571a128 128 0 0 1 181.028571 0z" fill="#e6e6e6" p-id="1683"></path></svg>